<svg width="177" height="117" viewBox="0 0 177 117" fill="none" xmlns="http://www.w3.org/2000/svg">
<g id="Animation-ballons">
<g id="Green">
<path id="green" d="M55.1602 46.8558C55.1602 59.2822 45.0866 87.6437 32.6602 87.6437C20.2337 87.6437 10.1602 59.2822 10.1602 46.8558C10.1602 34.4294 20.2337 24.3558 32.6602 24.3558C45.0866 24.3558 55.1602 34.4294 55.1602 46.8558Z" fill="#36CCA9" fill-opacity="0.8"/>
<path id="Green-bottom" d="M32.6602 87.6437L35.5196 92.142H29.8008L32.6602 87.6437Z" fill="#72DBC3" fill-opacity="0.8"/>
</g>
<g id="Darkgroup">
<g id="Blue">
<path id="Blue_2" d="M90.6035 46.8558C90.6035 59.2822 80.5299 87.6437 68.1035 87.6437C55.6771 87.6437 45.6035 59.2822 45.6035 46.8558C45.6035 34.4294 55.6771 24.3558 68.1035 24.3558C80.5299 24.3558 90.6035 34.4294 90.6035 46.8558Z" fill="#7DA1D7" fill-opacity="0.7"/>
<path id="Blue-bottom" d="M68.1035 87.6437L70.9629 92.142H65.2441L68.1035 87.6437Z" fill="#A2BBE0"/>
</g>
<g id="Red">
<path id="red" d="M55.1602 46.8558C55.1602 59.2822 45.0866 87.6437 32.6602 87.6437C20.2337 87.6437 10.1602 59.2822 10.1602 46.8558C10.1602 34.4294 20.2337 24.3558 32.6602 24.3558C45.0866 24.3558 55.1602 34.4294 55.1602 46.8558Z" fill="#ED564F" fill-opacity="0.8"/>
<path id="Red-bottom" d="M32.6602 87.6437L35.5196 92.142H29.8008L32.6602 87.6437Z" fill="#EA554E" fill-opacity="0.8"/>
</g>
</g>
</g>
</svg>
